<svg xmlns="http://www.w3.org/2000/svg" width="111.544" height="142.477" viewBox="0 0 111.544 142.477"><defs><style>.a{fill:#f67529;}.b{fill:#363636;}</style></defs><g transform="translate(-1962.294 -3527.324)"><g transform="translate(1978 3527.324)"><path class="a" d="M2058.073,3604.267a2.665,2.665,0,0,1-1.772-.955c-1.9-1.88-3.821-3.8-5.679-5.662q-1.49-1.492-2.982-2.981c-.225-.225-.458-.442-.714-.68-.121-.113-.247-.23-.38-.356a.814.814,0,0,0-.558-.221.786.786,0,0,0-.1.006.811.811,0,0,0-.585.368c-2.861,4.457-6.468,6.718-10.722,6.718h0a14.571,14.571,0,0,1-3.96-.587c-5.049-1.433-8.066-5.007-8.724-10.336-.648-5.249,1.555-9.478,6.548-12.571a.812.812,0,0,0,.189-1.218c-.086-.1-.168-.2-.249-.3-.182-.222-.371-.452-.587-.668q-1.86-1.865-3.724-3.726-2.514-2.514-5.023-5.033c-1.393-1.4-1.4-2.337-.033-3.706q5.364-5.37,10.732-10.737c6.98-6.98,14.2-14.2,21.283-21.314a13.428,13.428,0,0,1,5.2-2.984h3.69c3.052.827,5.19,2.98,7.452,5.258l.105.106c6.932,6.978,14.005,14.047,20.846,20.883q4.243,4.24,8.484,8.482c1.778,1.778,1.771,2.5-.039,4.316q-1.751,1.753-3.505,3.5c-2.734,2.73-5.562,5.553-8.324,8.35a3.193,3.193,0,0,1-2.139,1.258,2.1,2.1,0,0,1-.522-.071c-1-.259-1.351-.986-1.682-2.323a8.243,8.243,0,0,0-8.053-6.431,8.723,8.723,0,0,0-1.308.1,8.324,8.324,0,0,0-6.964,8.793c.2,3.772,2.793,6.641,6.934,7.675.952.237,2.031.829,1.763,2.3a2.856,2.856,0,0,1-.75,1.374c-3.573,3.627-7.519,7.58-12.415,12.441A2.6,2.6,0,0,1,2058.073,3604.267Zm-13.549-17.607c.838,0,1.518.624,2.319,1.439,2.448,2.49,4.963,4.993,7.393,7.415l2.255,2.246c.265.264.546.51.7.643l.087.076a.811.811,0,0,0,1.121-.025l7.682-7.667a.812.812,0,0,0-.122-1.25,12.479,12.479,0,0,1-5.638-9,12.616,12.616,0,0,1,3.192-9.96,11.824,11.824,0,0,1,8.9-3.922h.07a12.3,12.3,0,0,1,10.665,5.846.813.813,0,0,0,.6.354c.026,0,.052,0,.078,0a.812.812,0,0,0,.574-.238l8.034-8.03a.812.812,0,0,0,.014-1.134l-.243-.258c-.218-.233-.468-.5-.727-.759q-14.369-14.378-28.743-28.753c-1.592-1.591-3.11-2.364-4.644-2.364-1.549,0-3.091.79-4.717,2.416l-7.989,7.99q-9.483,9.485-18.97,18.966c-.616.615-1.258,1.209-1.936,1.838-.327.3-.66.612-1,.933a.812.812,0,0,0-.048,1.134c.137.153.248.279.342.385.173.2.3.338.439.48l2.488,2.494c2.571,2.579,5.23,5.246,7.866,7.851.964.953,1.227,1.666.936,2.543s-.9,1.285-2.245,1.476a8.709,8.709,0,0,0-6.23,3.923,8.074,8.074,0,0,0-.79,6.876,8.283,8.283,0,0,0,7.862,5.79c.2,0,.4-.008.606-.022a8.091,8.091,0,0,0,7.636-6.952c.23-1.435.449-2.331,1.553-2.675A2.158,2.158,0,0,1,2044.523,3586.659Z" transform="translate(-2017.999 -3527.324)"/></g><g transform="translate(1962.294 3595.454)"><path class="b" d="M2060.177,3843.318q-1.507,0-3.013-.012a2.035,2.035,0,0,1-2.248-1.981,2.005,2.005,0,0,1,2.211-2c.438,0,.875-.005,1.313-.005q.813,0,1.628,0t1.635,0c.9,0,1.642-.007,2.326-.02a5.614,5.614,0,0,0,5.78-5.79c.014-11.136.011-22.458.008-33.408l0-8.806c0-.208-.014-.4-.03-.63-.008-.109-.017-.228-.024-.361a.813.813,0,0,0-.811-.765H2063q-1.323,0-2.647-.005t-2.652-.006c-1.5,0-2.726.009-3.858.027h-.153c-1.287,0-1.934-.29-2.388-1.068s-.355-1.438.424-2.685a8.408,8.408,0,0,0,.878-7.1,8.259,8.259,0,0,0-7.831-5.68,8.446,8.446,0,0,0-6.308,2.915,8.16,8.16,0,0,0-1.072,9.309c.124.233.261.444.394.647.074.114.148.229.218.345a2.226,2.226,0,0,1,.167,2.266,2.195,2.195,0,0,1-1.991,1.021q-2.825.017-5.651.015l-3.946,0q-1.973,0-3.946,0h-1.763a.812.812,0,0,0-.812.812v5.145q0,1.367,0,2.733c-.006,2.2-.012,4.468.017,6.705.02,1.52-.13,2.278-1.071,2.751a2.026,2.026,0,0,1-.92.238,3.47,3.47,0,0,1-1.983-.879,8.281,8.281,0,0,0-12.954,4.309,8.114,8.114,0,0,0,.9,6.537,8.271,8.271,0,0,0,11.924,2.476c.177-.125.339-.255.5-.38.1-.081.2-.161.3-.237a2.01,2.01,0,0,1,1.226-.456,2.178,2.178,0,0,1,.963.248,1.867,1.867,0,0,1,1.112,1.878q-.014,5.622-.006,11.244v5.836a.812.812,0,0,0,.812.812h11.117a1.914,1.914,0,0,1,1.963,1.332,1.583,1.583,0,0,1-.426,1.973,3.44,3.44,0,0,1-1.925.653c-4.439.036-8.884.041-12.26.041l-10.1,0H1987.67l-15.284,0c-6.018,0-10.068-4.032-10.078-10.027-.019-11.353-.015-22.9-.01-34.06l0-10.825c0-2.387.484-2.87,2.875-2.871h66.7a.812.812,0,0,0,.8-.955c-.983-5.483.5-9.714,4.539-12.936a11.766,11.766,0,0,1,7.5-2.663c.407,0,.826.02,1.243.058a12.454,12.454,0,0,1,8.615,4.835,13.172,13.172,0,0,1,2.207,10.7.812.812,0,0,0,.8.958h6.1l2.278,0,2.275,0q1.554,0,3.107.011c1.858.015,2.485.625,2.486,2.418l.006,8.021c.01,12.313.02,25.045-.016,37.566a9.554,9.554,0,0,1-9.906,9.775h-.826Q2061.63,3843.316,2060.177,3843.318Zm-93.052-53.661a.811.811,0,0,0-.812.812v12.4q0,15.021,0,30.042c0,4.187,2.236,6.4,6.464,6.4,6.532,0,30.264,0,30.264,0h12.167a.812.812,0,0,0,.812-.812v-12.242a.812.812,0,0,0-.812-.812.784.784,0,0,0-.181.021,18.009,18.009,0,0,1-3.993.483,11.644,11.644,0,0,1-10.118-5.495,11.261,11.261,0,0,1-.393-13.02c2.483-4.08,6.009-6.149,10.48-6.149a17.978,17.978,0,0,1,3.972.478.785.785,0,0,0,.181.021.812.812,0,0,0,.812-.812v-10.509a.811.811,0,0,0-.812-.812Z" transform="translate(-1962.294 -3768.971)"/></g></g></svg>